<?xml version="1.0" encoding="utf-8"?>

<!DOCTYPE svg PUBLIC "-//W3C//DTD SVG 1.1//EN" "http://www.w3.org/Graphics/SVG/1.1/DTD/svg11.dtd">
<svg version="1.1" id="Layer_1" xmlns="http://www.w3.org/2000/svg" xmlns:xlink="http://www.w3.org/1999/xlink" x="0px" y="0px"
	 viewBox="0 0 1243.862 1692.539" enable-background="new 0 0 1243.862 1692.539" xml:space="preserve">
<path d="M1209.697,740.153c-4.202-40.382-59.967-59.334-94.962-47.389c-24.31,8.297-54.545,43.777-66.262,59.179
	c-25.484,33.504-74.893,140.736-85.945,174.123c-2.455,7.419-8.265,32.599-16.158,33.438c-6.368,0.679-18.882,7.767-23.932-7.026
	c-1.981-5.801-4.837-11.359-8.984-16.098c-0.855-0.977-1.76-2.366-1.751-3.559c0.016-2.273-1.611-18.732-9.196-36.95
	c-10.828-26.011-2.995-24.775-12.563-51.635c-1.632-4.575,3.937-16.77,2.194-27.248c-1.67-10.052,3.147-31.759,2.67-58.657
	c-1.618-91.519,39.392-132.408,56.829-239.468c3.039-18.658,1.859-9.357,17.193-56.338c11.263-34.509,30.62-126.644,41.183-163.46
	c10.398-36.243,16.62-92.119,16.77-93.121c15.05-100.501-68.732-104.718-90.127-60.598c-6.211,12.809-28.689,74.84-40.309,110.118
	c-40.088,121.702,0.643,16.785-57.09,153.452c-27.338,64.711-0.062-7.634-37.158,107.815
	c-0.322,1.001-36.519,110.976-47.675,137.528c-2.469,5.874-7.605,5.416-29.535,5.383c-15.379-0.024-15.989-0.156-15.838-3.119
	c0.061-1.198-1.346-30.059,8.093-92.551c9.771-64.688,3.858-65.122,6.983-93.15c13.003-116.659-4.448-157.656-0.255-243.642
	c0.945-19.381,0.711-38.826-1.58-57.988c-7.623-63.764-1.411-81.771-25.047-106.174c-30.828-31.827-78.952-14.248-86.759,19.199
	c-1.561,6.689-3.569,68.316-2.656,106.645c1.972,82.802-26.386,182.72-28.245,220c-6.908,138.639-8.143,234.044-16.607,237.63
	c-9.27,3.924-20.84,9.687-28.835,3.507c-23.013-17.789-25.452-130.751-43.954-181.572c-45.774-125.717-33.174-94.677-63.934-254.153
	c-4.748-24.61-10.611-63.996-26.215-81.092c-15.267-16.728-44.188-25.392-63.006-14.885c-19.452,10.861-36.551,33.565-31.44,60.031
	c11.607,60.102,7.131,62.667,13.197,96.517c10.079,56.252,29.216,113.353,35.869,176.07c6.532,61.572,20.974,109.82,36.4,172.126
	c6.616,26.723,20.349,99.004,12.256,105.749c-25.001,20.835-27.794,24.904-33.113,26.491c-14.153,4.224-29.665-6.803-35.635-16.65
	c-11.88-19.595-25.758-37.761-38.492-56.731c-26.733-39.822-31.13-51.86-53.19-75.858c-55.172-60.025-37.938-50.253-122.949-175.965
	c-36.045-53.3-102.236-23.539-81.966,38.389c20.436,62.42,37.15,86.769,77.344,154.617c19.648,33.165,9.466,23.1,41.868,70.288
	c28.953,42.161,56.113,72.521,88.98,150.868c2.378-4.831-0.059-2.243,19.168,3.919c2.344,0.751,4.542,2.091,6.72,3.395
	c0,0,30.576,10.108,53.446,21.691c18.244,9.239,20.413,11.622,22.481,9.516c0.949-0.967,2.196-1.434,3.553-1.334
	c3.4,0.251,6.774-0.681,10.184-0.118c4.706,0.777,9.307-1.309,13.998-0.637c2.747,0.394,5.439,0.143,8.144-0.16
	c75.489-8.466,102.312-5.641,187.226,10.481c3.522,0.669,27.954,4.419,27.954,4.419c43.317,12.182,84.716,0.989,111.433-2.53
	c11.043-1.454,16.2-0.333,42.257-2.616c34.413-3.013,96.638-6.035,84.442,26.788c-5.397,14.527-17.185,14.531-46.392,18.42
	c-12.537,1.669-34.898,2.36-49.154,5.48c-22.713,4.97-28.014,9.293-52.948,10.42c0,0-32.318,5.075-40.515,5.791
	c-5.967,0.521-15.667,5.997-13.538,14.898c4.144,17.339,3.728,16.156,6.322,17.367c24.042,11.219,45.305,13.972,78.024,21.336
	c41.101,9.25,49.497,17.333,99.302,27.149c19.75,3.892,39.637,12.251,46.093,14.535c16.496,5.835,26.204,4.26,32.637,19.642
	c7.863,18.805-7.145,35.887-29.212,33.082c-22.703-2.886-68.114-19.912-99.447-25.711c-31.171-5.769-38.524-2.073-66.215-10.87
	c-52.967-16.828-59.145-17.775-61.786-6.188c-0.228,1.002-1.13,6.701,0.482,7.746c44.502,28.847,75.551,39.305,110.742,65.4
	c63.704,47.238,46.957,31.119,100.276,60.464c31.826,17.517,7.224,54.59-23.261,42.655c-33.739-13.208-35.796-12.989-50.782-21.307
	c-24.237-13.452-59.932-25.521-74.664-34.114c-81.452-47.506-95.714-60.916-98.474-56.664c-0.783,1.206-5.367,10.017-6.32,12.802
	c-1.368,3.996-9.384-1.434,72.331,76.265c5.571,5.297,25.795,32.495,38.697,44.715c64.824,61.401,66.994,65.721,62.302,79.81
	c-4.434,13.315-18.115,17.154-32.015,11.932c-36.418-13.682-184.447-154.153-189.361-158.431
	c-10.184-8.865-37.054-19.801-54.037-31.378c-0.643-0.439-1.265-0.87-1.989-0.954c-5.176-0.602-10.16-2.01-14.92-4.018
	c-4.483-1.891-16.537-0.436-25.367-4.868c-0.482-0.242-1.227-0.153-1.794-0.001c-9.416,2.514-12.241-3.777-15.467,6.358
	c-3.303,10.364,8.873,5.461,53.476,69.08c45.558,64.986,0.944,90.851-17.642,83.977c-7.898-2.922-19.52-19.726-26.622-28.842
	c-27.381-35.146-14.356-47.12-69.288-89.279c-6.694-5.138-24.568-26.442-36.766-44.915c17.086,43.016,24.55,65.985,83.167,161.205
	c14.156,22.994,22.582,32.744,26.153,43.683c3.252,9.959,11.887,17.046,14.946,27.138c2.217,7.315,7.364,13.095,10.189,20.083
	c3.193,7.894,9.33,3.345,9.817,11.27c0.988,16.132-0.42,32.24-0.594,48.36c-0.301,27.705,2.827,50.226,3.319,88.093
	c0.104,7.896,2.594,8.196,2.507,11.892c-0.137,5.85,4.026,19.582,3.402,27.213c-1.838,22.54,1.968,17.09,3.308,54.044
	c0.24,6.628-15.163,4.42,187.086,4.42c0.148,0,184.876-0.004,185.024,0.003c4.829,0.234,0.341-3.975-0.435-13.228
	c-3.813-45.482-12.062-169.916-9.79-227.691c0.471-11.996,10.414-33.82,19.003-39.748c2.277-1.572,46.375-21.116,68.811-63.666
	c37.32-70.773,69.903-138.641,69.903-138.641c61.269-106.636,52.69-130.351,66.084-173.497
	c30.203-97.296,82.481-114.721,122.57-224.07C1207.35,757.508,1210.622,749.045,1209.697,740.153z"/>
</svg>
